<?xml version="1.0" standalone="no"?><!DOCTYPE svg PUBLIC "-//W3C//DTD SVG 1.1//EN" "http://www.w3.org/Graphics/SVG/1.1/DTD/svg11.dtd"><svg t="1749441245674" class="icon" viewBox="0 0 1024 1024" version="1.1" xmlns="http://www.w3.org/2000/svg" p-id="1489" xmlns:xlink="http://www.w3.org/1999/xlink" width="200" height="200"><path d="M383.52726 10.082852c-103.294623 18.26109-122.02504 56.447247-122.02504 127.059639v93.012094h244.306076v31.146251H169.812776c-71.081719 0-133.246223 42.666098-152.659298 123.859682-22.399701 93.012093-23.338355 151.037986 0 248.188691 17.365102 72.233704 58.751217 123.902348 129.832936 123.902348H230.825296v-111.571846c0-80.638925 69.673738-151.76331 152.659298-151.76331h244.092745c67.881762 0 122.02504-55.97792 122.02504-124.073012v-232.956894c0-66.26045-55.721924-115.838455-122.02504-127.059639-81.833576-13.482487-170.707057-12.799829-244.092745 0.255996zM368.210131 74.977987c25.172998 0 45.951387 21.034386 45.951387 46.634045S393.596459 167.99008 368.210131 167.99008A46.207384 46.207384 0 0 1 322.258743 121.612032 46.378048 46.378048 0 0 1 368.210131 74.977987z m423.290356 186.024186v108.585219c0 84.137545-71.295049 154.963267-152.659298 154.963267H394.748443c-66.772443 0-122.067706 57.172571-122.067705 124.158345v232.658231c0 66.26045 57.599232 105.129265 122.025039 124.073012 77.268303 22.613032 151.549979 26.751643 244.135412 0 61.439181-17.834429 122.02504-53.716617 122.025039-124.073012v-93.012093h-243.836748v-31.146251h366.117785c71.081719 0 97.364035-49.578006 122.067705-123.859682 25.599659-76.542979 24.447674-150.184664 0-248.188691-17.578432-70.655058-50.985987-123.902348-122.025039-123.902348H791.457821v-0.213331z m-137.384835 589.261477c25.386328 0 45.951387 20.77839 45.951387 46.378048 0 25.855655-20.565059 46.634045-45.908721 46.634045a46.506047 46.506047 0 0 1 0-93.012093z" fill="#47A1FF" p-id="1490"></path></svg>